<svg width="238" height="55" viewBox="0 0 238 55" fill="none" xmlns="http://www.w3.org/2000/svg">
<path d="M0.976 54V3.6H25.6C31.936 3.6 36.688 4.8 39.856 7.2C43.072 9.6 44.68 12.768 44.68 16.704C44.68 19.344 44.032 21.648 42.736 23.616C41.44 25.536 39.664 27.024 37.408 28.08C35.152 29.136 32.56 29.664 29.632 29.664L31 26.712C34.168 26.712 36.976 27.24 39.424 28.296C41.872 29.304 43.768 30.816 45.112 32.832C46.504 34.848 47.2 37.32 47.2 40.248C47.2 44.568 45.496 47.952 42.088 50.4C38.68 52.8 33.664 54 27.04 54H0.976ZM12.568 45.216H26.176C29.2 45.216 31.48 44.736 33.016 43.776C34.6 42.768 35.392 41.184 35.392 39.024C35.392 36.912 34.6 35.352 33.016 34.344C31.48 33.288 29.2 32.76 26.176 32.76H11.704V24.264H24.16C26.992 24.264 29.152 23.784 30.64 22.824C32.176 21.816 32.944 20.304 32.944 18.288C32.944 16.32 32.176 14.856 30.64 13.896C29.152 12.888 26.992 12.384 24.16 12.384H12.568V45.216ZM73.6707 54.576C69.5427 54.576 65.8707 53.712 62.6547 51.984C59.4867 50.256 56.9667 47.904 55.0947 44.928C53.2707 41.904 52.3587 38.472 52.3587 34.632C52.3587 30.744 53.2707 27.312 55.0947 24.336C56.9667 21.312 59.4867 18.96 62.6547 17.28C65.8707 15.552 69.5427 14.688 73.6707 14.688C77.7507 14.688 81.3987 15.552 84.6147 17.28C87.8307 18.96 90.3507 21.288 92.1747 24.264C93.9987 27.24 94.9107 30.696 94.9107 34.632C94.9107 38.472 93.9987 41.904 92.1747 44.928C90.3507 47.904 87.8307 50.256 84.6147 51.984C81.3987 53.712 77.7507 54.576 73.6707 54.576ZM73.6707 45.36C75.5427 45.36 77.2227 44.928 78.7107 44.064C80.1987 43.2 81.3747 41.976 82.2387 40.392C83.1027 38.76 83.5347 36.84 83.5347 34.632C83.5347 32.376 83.1027 30.456 82.2387 28.872C81.3747 27.288 80.1987 26.064 78.7107 25.2C77.2227 24.336 75.5427 23.904 73.6707 23.904C71.7987 23.904 70.1187 24.336 68.6307 25.2C67.1427 26.064 65.9427 27.288 65.0307 28.872C64.1667 30.456 63.7347 32.376 63.7347 34.632C63.7347 36.84 64.1667 38.76 65.0307 40.392C65.9427 41.976 67.1427 43.2 68.6307 44.064C70.1187 44.928 71.7987 45.36 73.6707 45.36ZM125.546 54V46.44L124.826 44.784V31.248C124.826 28.848 124.082 26.976 122.594 25.632C121.154 24.288 118.922 23.616 115.898 23.616C113.834 23.616 111.794 23.952 109.778 24.624C107.81 25.248 106.13 26.112 104.738 27.216L100.706 19.368C102.818 17.88 105.362 16.728 108.338 15.912C111.314 15.096 114.338 14.688 117.41 14.688C123.314 14.688 127.898 16.08 131.162 18.864C134.426 21.648 136.058 25.992 136.058 31.896V54H125.546ZM113.738 54.576C110.714 54.576 108.122 54.072 105.962 53.064C103.802 52.008 102.146 50.592 100.994 48.816C99.8416 47.04 99.2656 45.048 99.2656 42.84C99.2656 40.536 99.8176 38.52 100.922 36.792C102.074 35.064 103.874 33.72 106.322 32.76C108.77 31.752 111.962 31.248 115.898 31.248H126.194V37.8H117.122C114.482 37.8 112.658 38.232 111.65 39.096C110.69 39.96 110.21 41.04 110.21 42.336C110.21 43.776 110.762 44.928 111.866 45.792C113.018 46.608 114.578 47.016 116.546 47.016C118.418 47.016 120.098 46.584 121.586 45.72C123.074 44.808 124.154 43.488 124.826 41.76L126.554 46.944C125.738 49.44 124.25 51.336 122.09 52.632C119.93 53.928 117.146 54.576 113.738 54.576ZM146.223 54V15.264H156.951V26.208L155.439 23.04C156.591 20.304 158.439 18.24 160.983 16.848C163.527 15.408 166.623 14.688 170.271 14.688V25.056C169.791 25.008 169.359 24.984 168.975 24.984C168.591 24.936 168.183 24.912 167.751 24.912C164.679 24.912 162.183 25.8 160.263 27.576C158.391 29.304 157.455 32.016 157.455 35.712V54H146.223ZM193.3 54.576C189.652 54.576 186.364 53.76 183.436 52.128C180.508 50.448 178.18 48.12 176.452 45.144C174.772 42.168 173.932 38.664 173.932 34.632C173.932 30.552 174.772 27.024 176.452 24.048C178.18 21.072 180.508 18.768 183.436 17.136C186.364 15.504 189.652 14.688 193.3 14.688C196.564 14.688 199.42 15.408 201.868 16.848C204.316 18.288 206.212 20.472 207.556 23.4C208.9 26.328 209.572 30.072 209.572 34.632C209.572 39.144 208.924 42.888 207.628 45.864C206.332 48.792 204.46 50.976 202.012 52.416C199.612 53.856 196.708 54.576 193.3 54.576ZM195.244 45.36C197.068 45.36 198.724 44.928 200.212 44.064C201.7 43.2 202.876 41.976 203.74 40.392C204.652 38.76 205.108 36.84 205.108 34.632C205.108 32.376 204.652 30.456 203.74 28.872C202.876 27.288 201.7 26.064 200.212 25.2C198.724 24.336 197.068 23.904 195.244 23.904C193.372 23.904 191.692 24.336 190.204 25.2C188.716 26.064 187.516 27.288 186.604 28.872C185.74 30.456 185.308 32.376 185.308 34.632C185.308 36.84 185.74 38.76 186.604 40.392C187.516 41.976 188.716 43.2 190.204 44.064C191.692 44.928 193.372 45.36 195.244 45.36ZM205.396 54V46.08L205.612 34.56L204.892 23.112V0.575997H216.124V54H205.396ZM230.768 54.576C228.848 54.576 227.192 53.928 225.8 52.632C224.456 51.288 223.784 49.584 223.784 47.52C223.784 45.456 224.456 43.8 225.8 42.552C227.192 41.256 228.848 40.608 230.768 40.608C232.736 40.608 234.392 41.256 235.736 42.552C237.08 43.8 237.752 45.456 237.752 47.52C237.752 49.584 237.08 51.288 235.736 52.632C234.392 53.928 232.736 54.576 230.768 54.576Z" fill="white"/>
</svg>
